<svg version="1.2" xmlns="http://www.w3.org/2000/svg" viewBox="0 0 866 228" width="866px" height="228px" transform="rotate(0) scale(1, 1)"><style>.a { fill: #9e2dc4; }</style><path class="a" d="m0.3 224v-220.5h36.8l42.6 148.1v-148.1h32.7v220.5h-35.3l-44.1-141.1v141.1zm140 0v-220.5h94.8v31.5h-61.4v61.4h48.8v31.5h-48.8v64.6h61.4v31.5zm104.3-189v-31.5h106.5v31.5h-36.5v189h-33.4v-189zm123.7 189v-220.5h52.3q23.9 0 38.1 14.5 14.2 14.2 14.2 38.1v25.8q0 24-14.2 38.5-14.2 14.1-38.1 14.1h-18.9v89.5zm33.4-121h17.3q9.8 0 15.1-5.3 5.4-5.4 5.4-15.1v-27.1q0-9.8-5.4-15.1-5.3-5.4-15.1-5.4h-17.3zm141.3 124.1q-24 0-38.8-14.5-14.8-14.8-14.8-38.7v-120.4q0-23.9 14.8-38.4 14.8-14.8 38.8-14.8 23.9 0 38.7 14.8 14.8 14.5 14.8 38.4v120.4q0 23.9-14.8 38.7-14.8 14.5-38.7 14.5zm0-31.5q9.4 0 14.8-5.7 5.3-5.6 5.3-16v-120.4q0-10.3-5.3-16-5.4-5.7-14.8-5.7-9.5 0-14.8 5.7-5.4 5.7-5.4 16v120.4q0 10.4 5.4 16 5.3 5.7 14.8 5.7zm78.3 28.4v-220.5h36.8l42.6 148v-148h32.7v220.5h-35.3l-44.1-141.2v141.2zm244.3-151.9h-33.4v-18.6q0-10.3-5.3-16-5.4-5.7-14.8-5.7-9.5 0-14.9 5.7-5.3 5.7-5.3 16v120.4q0 10.4 5.3 16 5.4 5.7 14.9 5.7 9.4 0 14.8-5.7 5.3-5.6 5.3-16v-39.1h-20.1v-31.5h53.5v70.6q0 23.9-14.8 38.7-14.8 14.5-38.7 14.5-24 0-38.8-14.5-14.8-14.8-14.8-38.7v-120.4q0-23.9 14.8-38.4 14.8-14.8 38.8-14.8 23.9 0 38.7 14.8 14.8 14.5 14.8 38.4z"/></svg>